PathFileType	4	(X/Y/Z)	RBDS014\RBDS014runT35.trc
DataRate	CameraRate	NumFrames	NumMarkers	Units	OrigDataRate	OrigDataStartFrame	OrigNumFrames
150.000000	150.000000	5	33	mm	150.000000	2812	4500
Frame#	Time	L.ASIS			L.Heel.Bottom			L.Heel.Lateral			L.Heel.Top			L.Iliac.Crest			L.MT1			L.MT5			L.PSIS			L.Shank.Bottom.Lateral			L.Shank.Bottom.Medial			L.Shank.Top.Lateral			L.Shank.Top.Medial			L.Thigh.Bottom.Lateral			L.Thigh.Bottom.Medial			L.Thigh.Top.Lateral			L.Thigh.Top.Medial			R.ASIS			R.ASY			R.Heel.Bottom			R.Heel.Lateral			R.Heel.Top			R.Iliac.Crest			R.MT1			R.MT5			R.PSIS			R.Shank.Bottom.Lateral			R.Shank.Bottom.Medial			R.Shank.Top.Lateral			R.Shank.Top.Medial			R.Thigh.Bottom.Lateral			R.Thigh.Bottom.Medial			R.Thigh.Top.Lateral			R.Thigh.Top.Medial			
		X1	Y1	Z1	X2	Y2	Z2	X3	Y3	Z3	X4	Y4	Z4	X5	Y5	Z5	X6	Y6	Z6	X7	Y7	Z7	X8	Y8	Z8	X9	Y9	Z9	X10	Y10	Z10	X11	Y11	Z11	X12	Y12	Z12	X13	Y13	Z13	X14	Y14	Z14	X15	Y15	Z15	X16	Y16	Z16	X17	Y17	Z17	X18	Y18	Z18	X19	Y19	Z19	X20	Y20	Z20	X21	Y21	Z21	X22	Y22	Z22	X23	Y23	Z23	X24	Y24	Z24	X25	Y25	Z25	X26	Y26	Z26	X27	Y27	Z27	X28	Y28	Z28	X29	Y29	Z29	X30	Y30	Z30	X31	Y31	Z31	X32	Y32	Z32	X33	Y33	Z33	

2813	18.74666666666667	2149.661605384617	1051.908644010741	921.0774384630538	1424.498723451223	596.3651588683455	1024.322780594921	1428.071643497472	574.6489953716302	976.6239727027275	1467.989334173989	573.3035091285061	1011.285799761427	2098.636211380398	1125.830356417531	889.2600364875356	1379.270281861656	361.4410204433929	1037.518477487379	1356.866738980747	419.8723954693382	932.7519752325748	1971.204919996977	1082.61517144364	987.8467687200227	1556.57917753936	521.3879195962484	930.4001688286816	1556.525084811013	559.8696024753176	970.7086813861431	1633.323355070928	538.9806863292052	914.3596977371919	1634.125530279571	576.3093876371365	952.9443117639423	1973.461853719797	673.2764115659236	867.8416646447463	1921.6970069873	685.3313030913722	918.0424793673445	1985.255325314648	782.7460961489649	858.806560368844	1939.480512277404	794.0319066659935	909.3979332674712	2147.373636927638	1071.826536197417	1161.082330586428	2338.436548235427	92.23717788105522	1076.677785692144	2144.996289496835	27.28169918054437	1051.831123152961	2165.170078779996	47.97353279701622	1092.975789026483	2153.726317201331	78.39864402413473	1052.721829235814	2078.621236494363	1134.402278157926	1195.58062894719	2379.547537478397	54.36650460185331	1027.63342341222	2337.317650316615	37.88120360128413	1143.713872852377	1972.6223144453	1094.305694975136	1081.496968585774	2211.596742212242	179.0034904067348	1124.837187377882	2180.133974388968	191.4700916917005	1086.327729993583	2211.307264378551	259.9161513660228	1148.625341121523	2177.229150633316	268.5093455251436	1108.327124601569	2227.048159349885	690.5066975171018	1199.34843121561	2166.61343797349	659.9394790522983	1171.591849128673	2168.162581556383	781.0517149247542	1219.238049489458	2111.716077521951	753.1093321326592	1190.79949459931	
2814	18.75333333333333	2149.24558975848	1045.334729195639	920.9678532800655	1440.271961416109	606.7649149807719	1023.198256458723	1443.194720051846	584.6531029193206	975.6272230668366	1483.150589263485	582.5218600711406	1010.24739257862	2098.142365200274	1118.454271582142	887.8011235648174	1389.245195479702	372.6985293881405	1037.075502449267	1368.252872079816	431.3307427579727	932.0424980861752	1969.576390156471	1074.480445360799	986.2091075475356	1570.560331769695	526.335258509298	929.7114216984299	1572.064550793345	565.251951824543	969.586643979501	1647.88256818506	540.7962377997588	913.4278915137214	1650.225708035831	578.4155154547256	951.6633753701857	1981.824774092653	664.411207176734	868.2067482416603	1929.626369691573	675.1367283620373	918.2755689935564	1990.89220338975	774.0738098546262	858.9989496397216	1944.647034793329	784.2661739142106	909.48756429911	2145.13445936405	1067.831746380798	1161.762377616001	2317.446727186291	89.15201559627219	1075.531201258184	2121.56899301396	29.00522476237337	1051.282086682636	2142.166246336438	49.74890179065848	1092.243441000808	2131.646920597669	80.13090093472688	1051.62103052315	2076.580447880769	1127.48664690727	1195.404024754239	2357.842077815249	50.08950598431103	1027.107998771415	2314.511297109395	35.89016306483585	1143.761006390706	1970.52330065149	1087.637217122613	1079.469111811255	2195.266470202159	179.3788651423564	1124.147876266333	2164.477279249279	193.4320046836399	1085.620801261221	2198.770540139375	260.174889948539	1148.350041449893	2165.236897987154	270.4322800690871	1107.969913065	2225.106711408406	687.4569678818787	1200.948992011984	2165.299017287637	656.8943242595233	1171.985099309244	2165.835759828975	777.9000879363615	1220.185877784437	2109.918443193255	749.9409273690929	1190.785230179275	
2815	18.76	2148.438150327002	1038.758282888567	920.9052445620738	1456.298522036172	615.7500030294497	1021.915217954533	1458.937129106175	593.3404551763356	974.5283805348081	1498.756507064723	590.7154340106606	1009.233718842965	2097.339936334215	1111.154107131624	886.2453113897791	1401.282342670025	382.4906808966651	1036.332082283569	1381.667009401887	441.0985864975817	930.9480577955616	1967.681111219945	1066.734994502811	984.3986873390627	1585.522792148329	530.5465621543779	929.0431950701326	1588.477323640112	569.8426595406721	968.477620192552	1663.303645909611	542.0405381000309	912.6249607627836	1667.05868706776	579.9263203960217	950.4719706138969	1990.550331949493	655.89105329237	868.6563688749094	1937.771342519827	665.2629240393231	918.369086525743	1996.794061398123	765.6766266004585	859.1845185374314	1949.931471643118	774.7550134719474	909.381039769987	2142.678507142266	1064.460002552245	1162.351474549537	2295.686440359988	87.18804965111353	1074.491276083622	2098.05379549972	30.58204455816243	1050.82067209691	2118.953693311403	51.45423785818677	1091.621105894591	2109.098568813473	81.70944064623103	1050.695774361141	2074.100133180736	1120.962918421973	1195.109326812803	2335.486298382712	47.45452737099959	1026.654655836698	2291.375178396439	34.8942650499437	1143.761091266883	1968.276448079138	1081.378470567063	1077.280517084597	2178.120587604775	180.2022212679824	1123.599492785733	2148.114124716191	195.7801817251449	1084.986011807255	2185.304999808541	260.7729308796409	1148.215306304038	2152.448948655818	272.6318393821723	1107.682198255263	2222.401136577299	684.4335181509101	1202.574158858744	2163.171163062354	654.044746092415	1172.349258012782	2163.026509157874	774.9492126840664	1221.119870981408	2107.548143697698	747.1368779057752	1190.747765042781	
2816	18.76666666666667	2147.24891210048	1032.317500741406	920.8704116255936	1472.457443019342	623.3260535704734	1020.368468093945	1475.204458500738	600.6727927946582	973.2417708147515	1514.707767355774	597.8548484699259	1008.181758899142	2096.190809159037	1104.109167925483	884.626839175955	1415.134152585661	390.7376788925937	1035.357471005255	1396.937281375612	449.0481814416242	929.5094282849489	1965.589332618811	1059.610955761879	982.480177663442	1601.388015258429	533.9990736781634	928.3871322359057	1605.651440359175	573.6091232514561	967.3993783891173	1679.540478433934	542.7165135482149	911.989529701947	1684.543068807063	580.8462166504626	949.418033458083	1999.649049410531	647.8381679863743	869.1987323345276	1946.168205555229	655.7974108342337	918.3492189320317	2002.937927485485	757.6757069160917	859.3976733371511	1955.340931402634	765.5828709064757	909.1276976375505	2140.13467151892	1061.74502295296	1162.803682506456	2273.383209933583	86.13135270610097	1073.655013634837	2074.612270397572	31.92874938586794	1050.488288504937	2095.710603625239	52.97351514776023	1091.154498331544	2086.287614974177	83.05294116736009	1050.001065111267	2071.270478596373	1115.064472043374	1194.692929021171	2312.708810973767	46.21564519745326	1026.359241510058	2268.100847169319	34.64314064358407	1143.771238139645	1965.982430844141	1075.704488808034	1075.025635012898	2160.268214296618	181.2355200383167	1123.251331780524	2131.115883449167	198.2377631281819	1084.502532757602	2170.928196451028	261.4773942153717	1148.262202128076	2138.850862366611	274.837759231081	1107.525961094603	2218.862570555995	681.3724369696996	1204.159546035416	2160.088925534993	651.3448553852595	1172.74089812342	2159.745309980026	772.1718637794221	1222.005665535937	2104.554971711001	744.6891324284917	1190.747516862448	
2817	18.77333333333333	2145.705911628996	1026.168005355794	920.833030251913	1488.660060938264	629.5069195383887	1018.467161189642	1491.906713414547	606.6198260487523	971.6932916904113	1530.919433599099	603.9071192267745	1007.028336126584	2094.671932814971	1097.51247952736	882.9904003320754	1430.523743005398	397.3941008321439	1034.228506383228	1413.845155908188	455.097410955796	927.7883387017487	1963.375842516693	1053.315371613827	980.5494798132515	1618.059815359593	536.6791240365242	927.7347620334166	1623.460304170218	576.5304887311556	966.3712156581864	1696.526721249002	542.8386031347123	911.5493753678822	1702.583040998702	581.1897010742289	948.5453039850421	2009.125804923267	640.3790790848817	869.8371146665557	1954.860721549403	646.8290896006786	918.2520790258978	2009.29476521128	750.1932190069109	859.6738112902011	1960.887152041374	756.8331818870809	908.7878599110727	2137.632722423056	1059.657100137012	1163.081301134318	2250.712196942368	85.73189137445793	1073.085995907922	2051.311520559367	33.00456180992635	1050.306526446493	2072.525778964922	54.2320377461121	1090.867810629264	2063.346771848985	84.12235542677347	1049.563415552246	2068.225236882979	1109.983259509924	1194.165267065989	2289.677095653131	46.04396749367639	1026.275478846272	2244.799215440245	34.87063069118116	1143.835633317535	1963.735468623487	1070.770491604059	1072.8220268832	2141.7997506825	182.2648459273894	1123.134642430991	2113.526286309046	200.5663500274478	1084.231128893029	2155.668774300194	262.0852121365256	1148.507297348563	2124.426804818468	276.8247571666632	1107.548182286773	2214.46724817248	678.2371234579105	1205.649672015557	2155.961581424958	648.7589149956974	1173.228151727005	2156.016064558962	769.5469504936265	1222.820087043625	2100.915100313885	742.5804928602859	1190.850182160478	
